<svg width="29" height="29" viewBox="0 0 29 29" fill="none" xmlns="http://www.w3.org/2000/svg">
<ellipse cx="14.0484" cy="14.0485" rx="14.0484" ry="14.0485" fill="#CEC8EB"/>
<path fill-rule="evenodd" clip-rule="evenodd" d="M9.51554 20.5333C8.99791 20.5333 8.5062 20.3277 8.1358 19.9619C7.7654 19.5961 7.56445 19.0998 7.56445 18.5822V9.51653C7.56445 8.99889 7.77003 8.50718 8.1358 8.13678C8.50157 7.76637 8.99791 7.56543 9.51554 7.56543H18.5811C19.0987 7.56543 19.5905 7.771 19.9609 8.13678C20.3313 8.50255 20.5322 8.99889 20.5322 9.51653V18.5822C20.5322 19.0998 20.3266 19.5915 19.9609 19.9619C19.5951 20.3323 19.0987 20.5333 18.5811 20.5333H9.51554ZM17.4329 15.0605H16.0624V19.5887H18.5811C18.7134 19.5891 18.8444 19.5633 18.9667 19.5129C19.089 19.4624 19.2001 19.3883 19.2937 19.2947C19.3872 19.2012 19.4613 19.0901 19.5118 18.9678C19.5623 18.8455 19.588 18.7144 19.5877 18.5822V9.51653C19.5878 9.38431 19.5618 9.25337 19.5113 9.13119C19.4608 9.00901 19.3866 8.898 19.2931 8.80451C19.1996 8.71101 19.0886 8.63687 18.9664 8.58633C18.8443 8.53579 18.7133 8.50984 18.5811 8.50996H9.51554C9.24881 8.51069 8.99321 8.61698 8.8046 8.80559C8.61599 8.9942 8.50971 9.2498 8.50898 9.51653V18.5822C8.50971 18.8489 8.61599 19.1045 8.8046 19.2931C8.99321 19.4817 9.24881 19.588 9.51554 19.5887H14.553V15.0605H13.0436V13.5512H14.553V12.74C14.553 11.2028 15.3012 10.5268 16.5809 10.5268C17.1801 10.5268 17.5023 10.5703 17.6551 10.5916L17.6644 10.5926V12.0371H16.7939C16.355 12.0371 16.1476 12.2251 16.0846 12.6038C16.0695 12.7025 16.0624 12.8022 16.0633 12.902V13.5474H17.6468L17.431 15.0568L17.4329 15.0605Z" fill="white"/>
</svg>
