<svg width="29" height="29" viewBox="0 0 29 29" fill="none" xmlns="http://www.w3.org/2000/svg">
<ellipse cx="14.0484" cy="14.0485" rx="14.0484" ry="14.0485" fill="#CEC8EB"/>
<path d="M14.0485 16.9305C14.8127 16.9305 15.5457 16.6269 16.0862 16.0864C16.6266 15.546 16.9302 14.813 16.9302 14.0487C16.9302 13.2844 16.6266 12.5515 16.0862 12.011C15.5457 11.4706 14.8127 11.167 14.0485 11.167C13.2842 11.167 12.5512 11.4706 12.0108 12.011C11.4704 12.5515 11.1667 13.2844 11.1667 14.0487C11.1667 14.813 11.4704 15.546 12.0108 16.0864C12.5512 16.6269 13.2842 16.9305 14.0485 16.9305Z" stroke="white" stroke-linecap="round" stroke-linejoin="round"/>
<path d="M7.56445 16.9301V11.1666C7.56445 10.2113 7.94396 9.29504 8.6195 8.61951C9.29503 7.94397 10.2113 7.56445 11.1666 7.56445H16.93C17.8854 7.56445 18.8016 7.94397 19.4772 8.61951C20.1527 9.29504 20.5322 10.2113 20.5322 11.1666V16.9301C20.5322 17.8855 20.1527 18.8017 19.4772 19.4772C18.8016 20.1528 17.8854 20.5323 16.93 20.5323H11.1666C10.2113 20.5323 9.29503 20.1528 8.6195 19.4772C7.94396 18.8017 7.56445 17.8855 7.56445 16.9301Z" stroke="white"/>
<path d="M18.0107 10.0941L18.0182 10.0859" stroke="white" stroke-linecap="round" stroke-linejoin="round"/>
</svg>
