<svg width="29" height="29" viewBox="0 0 29 29" fill="none" xmlns="http://www.w3.org/2000/svg">
<ellipse cx="14.0484" cy="14.0485" rx="14.0484" ry="14.0485" fill="#CEC8EB"/>
<path d="M6.48389 13.6891C6.48389 17.0708 9.70925 19.8128 13.6882 19.8128C14.1829 19.8123 14.6632 19.7715 15.129 19.6904V21.9741C16.3322 20.7962 18.371 18.7322 19.6361 17.1451C20.4285 16.1617 20.8925 14.9715 20.8925 13.6891C20.8925 10.3074 17.6671 7.56543 13.6882 7.56543C9.70925 7.56543 6.48389 10.3074 6.48389 13.6891Z" stroke="white" stroke-linejoin="round"/>
<path d="M9.36572 12.2471V15.1288H10.0862M11.527 12.2471V15.1288M13.0399 15.1288V12.2471L14.7689 15.1288V12.2471M17.6507 12.2471H16.2819V13.6879M16.2819 13.6879V15.1288H17.6507M16.2819 13.6879H17.3193" stroke="white" stroke-linecap="round" stroke-linejoin="round"/>
</svg>
