<svg width="29" height="29" viewBox="0 0 29 29" fill="none" xmlns="http://www.w3.org/2000/svg">
<ellipse cx="14.0484" cy="14.0485" rx="14.0484" ry="14.0485" fill="#CEC8EB"/>
<path d="M11.1533 8.5459L11.1836 8.58398L14.1807 12.4658L17.9434 8.57617L17.9727 8.5459H19.2998L19.1357 8.71484L14.7705 13.2285L19.5303 19.3906L19.6553 19.5518H15.8623L15.833 19.5127L12.6621 15.4092L8.68555 19.5215L8.65527 19.5518H7.3291L7.49219 19.3828L12.0732 14.6465L7.48535 8.70703L7.36133 8.5459H11.1533ZM12.8105 14.0469L13.2812 14.6445L16.4541 18.6816H17.8105L14.0127 13.8496L13.542 13.251L10.5537 9.44824H9.19629L12.8105 14.0469Z" fill="white" stroke="white" stroke-width="0.2"/>
</svg>
