<svg width="9" height="9" viewBox="0 0 9 9" fill="none" xmlns="http://www.w3.org/2000/svg">
<path d="M8.99998 4.5C9.001 4.63192 8.96091 4.76088 8.88528 4.86895C8.80965 4.97703 8.70224 5.05885 8.57798 5.10304L6.02828 6.03052L5.10149 8.58059C5.05581 8.7037 4.97356 8.80987 4.86579 8.88484C4.75802 8.95981 4.6299 9 4.49863 9C4.36736 9 4.23923 8.95981 4.13147 8.88484C4.0237 8.80987 3.94145 8.7037 3.89577 8.58059L2.96897 6.03012L0.419278 5.10304C0.296213 5.05735 0.190076 4.97508 0.115125 4.86727C0.040174 4.75947 0 4.63131 0 4.5C0 4.36869 0.040174 4.24053 0.115125 4.13273C0.190076 4.02492 0.296213 3.94265 0.419278 3.89696L2.96897 2.96988L3.89577 0.419406C3.94145 0.296304 4.0237 0.190134 4.13147 0.11516C4.23923 0.0401863 4.36736 0 4.49863 0C4.6299 0 4.75802 0.0401863 4.86579 0.11516C4.97356 0.190134 5.05581 0.296304 5.10149 0.419406L6.02869 2.96988L8.57798 3.89696C8.70224 3.94115 8.80965 4.02297 8.88528 4.13105C8.96091 4.23912 9.001 4.36808 8.99998 4.5Z" fill="white"/>
</svg>
